<svg width="306" height="42" viewBox="0 0 306 42" fill="none" xmlns="http://www.w3.org/2000/svg">
<path d="M0.305398 41.6477V0.738634H9.76562V3.87074H3.88494V38.5156H9.76562V41.6477H0.305398ZM16.0977 21.1932C16.0977 17.1662 16.6198 13.4641 17.6638 10.087C18.7185 6.69922 20.2206 3.5831 22.1702 0.738634H25.4941C24.727 1.79332 24.0079 3.09304 23.3367 4.63778C22.6762 6.17187 22.0956 7.86044 21.5949 9.70348C21.0942 11.5359 20.7 13.4322 20.4124 15.3924C20.1354 17.3526 19.9969 19.2862 19.9969 21.1932C19.9969 23.7287 20.2419 26.3015 20.732 28.9116C21.222 31.5217 21.8825 33.9453 22.7135 36.1825C23.5445 38.4197 24.4713 40.2415 25.4941 41.6477H22.1702C20.2206 38.8033 18.7185 35.6925 17.6638 32.3153C16.6198 28.9276 16.0977 25.2202 16.0977 21.1932ZM51.6455 35H46.1963C46.0645 35 45.9912 34.9268 45.9766 34.7803L40.6592 3.86475C40.6299 3.74756 40.6738 3.68896 40.791 3.68896H45.8447C45.9619 3.68896 46.0352 3.74756 46.0645 3.86475L48.9429 24.1895L51.9092 3.86475C51.9385 3.74756 52.0264 3.68896 52.1729 3.68896H56.2378C56.355 3.68896 56.4282 3.74756 56.4575 3.86475L59.3799 24.1895L62.3022 3.86475C62.3315 3.74756 62.4048 3.68896 62.522 3.68896H67.5317C67.6782 3.68896 67.7368 3.74756 67.7075 3.86475L62.3462 34.7803C62.3315 34.8389 62.2876 34.8901 62.2144 34.9341L62.1265 35H56.6772C56.5894 35 56.5161 34.9268 56.4575 34.7803L54.1504 18.6304L51.8652 34.7803C51.8506 34.9268 51.7773 35 51.6455 35ZM66.5869 34.7803L72.168 3.86475C72.1973 3.74756 72.2705 3.68896 72.3877 3.68896H78.9136C79.0308 3.68896 79.104 3.74756 79.1333 3.86475L84.4946 34.7803C84.5093 34.9268 84.4507 35 84.3188 35H79.3311C79.1846 35 79.104 34.9268 79.0894 34.7803L78.606 31.4844H72.4756L71.9922 34.7803C71.9775 34.9268 71.9043 35 71.7725 35H66.7627C66.6455 35 66.5869 34.9268 66.5869 34.7803ZM75.3979 14.0381L73.3765 26.6724H77.7051L75.8594 14.0381L75.5957 12.3682L75.3979 14.0381ZM96.9092 35H91.8335C91.7017 35 91.6357 34.9268 91.6357 34.7803V9.11621H85.791C85.6445 9.11621 85.5713 9.04297 85.5713 8.89648L85.6152 3.86475C85.6152 3.74756 85.6738 3.68896 85.791 3.68896H102.886C103.047 3.68896 103.127 3.74756 103.127 3.86475V8.89648C103.127 9.04297 103.069 9.11621 102.952 9.11621H97.041L97.085 34.7803C97.085 34.9268 97.0264 35 96.9092 35ZM113.608 35.4395C111.982 35.4395 110.496 35.0293 109.148 34.209C107.815 33.3887 106.753 32.29 105.962 30.9131C105.186 29.5215 104.797 27.9761 104.797 26.2769L104.841 12.2363C104.841 10.5664 105.222 9.05762 105.984 7.70996C106.746 6.34766 107.793 5.25635 109.126 4.43604C110.474 3.60107 111.968 3.18359 113.608 3.18359C115.278 3.18359 116.765 3.58643 118.069 4.39209C119.387 5.19775 120.435 6.28906 121.211 7.66602C122.002 9.02832 122.397 10.5518 122.397 12.2363V14.3018C122.397 14.4189 122.339 14.4775 122.222 14.4775H117.168C117.051 14.4775 116.992 14.4189 116.992 14.3018V12.2363C116.992 11.2402 116.67 10.3833 116.025 9.66553C115.381 8.94775 114.575 8.58887 113.608 8.58887C112.539 8.58887 111.719 8.95508 111.147 9.6875C110.576 10.4199 110.291 11.2695 110.291 12.2363V26.2769C110.291 27.3755 110.613 28.2764 111.257 28.9795C111.902 29.668 112.686 30.0122 113.608 30.0122C114.575 30.0122 115.381 29.6313 116.025 28.8696C116.67 28.0933 116.992 27.229 116.992 26.2769V24.1895C116.992 24.0723 117.051 24.0137 117.168 24.0137H122.266C122.383 24.0137 122.441 24.0723 122.441 24.1895V26.2769C122.441 27.9614 122.046 29.4995 121.255 30.8911C120.449 32.2681 119.387 33.374 118.069 34.209C116.75 35.0293 115.264 35.4395 113.608 35.4395ZM130.989 35H125.891C125.774 35 125.715 34.9268 125.715 34.7803L125.759 3.86475C125.759 3.74756 125.833 3.68896 125.979 3.68896H130.989C131.135 3.68896 131.208 3.74756 131.208 3.86475L131.165 16.1035H137.91V3.86475C137.91 3.74756 137.969 3.68896 138.086 3.68896H143.096C143.242 3.68896 143.315 3.74756 143.315 3.86475L143.403 34.7803C143.403 34.9268 143.33 35 143.184 35H138.13C137.983 35 137.91 34.9268 137.91 34.7803V21.5527H131.165V34.7803C131.165 34.9268 131.106 35 130.989 35ZM168.074 41.21V0.799998H180.674V3.59H171.179V38.42H180.674V41.21H168.074ZM255.771 0.799998V41.21H243.171V38.42H252.666V3.59H243.171V0.799998H255.771ZM290.041 21.1932C290.041 25.2202 289.513 28.9276 288.459 32.3153C287.415 35.6925 285.918 38.8033 283.968 41.6477H280.645C281.412 40.593 282.125 39.2933 282.786 37.7486C283.457 36.2145 284.043 34.5312 284.544 32.6989C285.044 30.8558 285.433 28.9542 285.71 26.994C285.998 25.0231 286.142 23.0895 286.142 21.1932C286.142 18.6577 285.897 16.0849 285.407 13.4748C284.917 10.8647 284.256 8.44105 283.425 6.20383C282.594 3.96662 281.667 2.14488 280.645 0.738634H283.968C285.918 3.5831 287.415 6.69922 288.459 10.087C289.513 13.4641 290.041 17.1662 290.041 21.1932ZM305.833 0.738634V41.6477H296.373V38.5156H302.254V3.87074H296.373V0.738634H305.833Z" fill="white"/>
<path d="M0.305398 41.6477V0.738634H9.76562V3.87074H3.88494V38.5156H9.76562V41.6477H0.305398ZM16.0977 21.1932C16.0977 17.1662 16.6198 13.4641 17.6638 10.087C18.7185 6.69922 20.2206 3.5831 22.1702 0.738634H25.4941C24.727 1.79332 24.0079 3.09304 23.3367 4.63778C22.6762 6.17187 22.0956 7.86044 21.5949 9.70348C21.0942 11.5359 20.7 13.4322 20.4124 15.3924C20.1354 17.3526 19.9969 19.2862 19.9969 21.1932C19.9969 23.7287 20.2419 26.3015 20.732 28.9116C21.222 31.5217 21.8825 33.9453 22.7135 36.1825C23.5445 38.4197 24.4713 40.2415 25.4941 41.6477H22.1702C20.2206 38.8033 18.7185 35.6925 17.6638 32.3153C16.6198 28.9276 16.0977 25.2202 16.0977 21.1932ZM51.6455 35H46.1963C46.0645 35 45.9912 34.9268 45.9766 34.7803L40.6592 3.86475C40.6299 3.74756 40.6738 3.68896 40.791 3.68896H45.8447C45.9619 3.68896 46.0352 3.74756 46.0645 3.86475L48.9429 24.1895L51.9092 3.86475C51.9385 3.74756 52.0264 3.68896 52.1729 3.68896H56.2378C56.355 3.68896 56.4282 3.74756 56.4575 3.86475L59.3799 24.1895L62.3022 3.86475C62.3315 3.74756 62.4048 3.68896 62.522 3.68896H67.5317C67.6782 3.68896 67.7368 3.74756 67.7075 3.86475L62.3462 34.7803C62.3315 34.8389 62.2876 34.8901 62.2144 34.9341L62.1265 35H56.6772C56.5894 35 56.5161 34.9268 56.4575 34.7803L54.1504 18.6304L51.8652 34.7803C51.8506 34.9268 51.7773 35 51.6455 35ZM66.5869 34.7803L72.168 3.86475C72.1973 3.74756 72.2705 3.68896 72.3877 3.68896H78.9136C79.0308 3.68896 79.104 3.74756 79.1333 3.86475L84.4946 34.7803C84.5093 34.9268 84.4507 35 84.3188 35H79.3311C79.1846 35 79.104 34.9268 79.0894 34.7803L78.606 31.4844H72.4756L71.9922 34.7803C71.9775 34.9268 71.9043 35 71.7725 35H66.7627C66.6455 35 66.5869 34.9268 66.5869 34.7803ZM75.3979 14.0381L73.3765 26.6724H77.7051L75.8594 14.0381L75.5957 12.3682L75.3979 14.0381ZM96.9092 35H91.8335C91.7017 35 91.6357 34.9268 91.6357 34.7803V9.11621H85.791C85.6445 9.11621 85.5713 9.04297 85.5713 8.89648L85.6152 3.86475C85.6152 3.74756 85.6738 3.68896 85.791 3.68896H102.886C103.047 3.68896 103.127 3.74756 103.127 3.86475V8.89648C103.127 9.04297 103.069 9.11621 102.952 9.11621H97.041L97.085 34.7803C97.085 34.9268 97.0264 35 96.9092 35ZM113.608 35.4395C111.982 35.4395 110.496 35.0293 109.148 34.209C107.815 33.3887 106.753 32.29 105.962 30.9131C105.186 29.5215 104.797 27.9761 104.797 26.2769L104.841 12.2363C104.841 10.5664 105.222 9.05762 105.984 7.70996C106.746 6.34766 107.793 5.25635 109.126 4.43604C110.474 3.60107 111.968 3.18359 113.608 3.18359C115.278 3.18359 116.765 3.58643 118.069 4.39209C119.387 5.19775 120.435 6.28906 121.211 7.66602C122.002 9.02832 122.397 10.5518 122.397 12.2363V14.3018C122.397 14.4189 122.339 14.4775 122.222 14.4775H117.168C117.051 14.4775 116.992 14.4189 116.992 14.3018V12.2363C116.992 11.2402 116.67 10.3833 116.025 9.66553C115.381 8.94775 114.575 8.58887 113.608 8.58887C112.539 8.58887 111.719 8.95508 111.147 9.6875C110.576 10.4199 110.291 11.2695 110.291 12.2363V26.2769C110.291 27.3755 110.613 28.2764 111.257 28.9795C111.902 29.668 112.686 30.0122 113.608 30.0122C114.575 30.0122 115.381 29.6313 116.025 28.8696C116.67 28.0933 116.992 27.229 116.992 26.2769V24.1895C116.992 24.0723 117.051 24.0137 117.168 24.0137H122.266C122.383 24.0137 122.441 24.0723 122.441 24.1895V26.2769C122.441 27.9614 122.046 29.4995 121.255 30.8911C120.449 32.2681 119.387 33.374 118.069 34.209C116.75 35.0293 115.264 35.4395 113.608 35.4395ZM130.989 35H125.891C125.774 35 125.715 34.9268 125.715 34.7803L125.759 3.86475C125.759 3.74756 125.833 3.68896 125.979 3.68896H130.989C131.135 3.68896 131.208 3.74756 131.208 3.86475L131.165 16.1035H137.91V3.86475C137.91 3.74756 137.969 3.68896 138.086 3.68896H143.096C143.242 3.68896 143.315 3.74756 143.315 3.86475L143.403 34.7803C143.403 34.9268 143.33 35 143.184 35H138.13C137.983 35 137.91 34.9268 137.91 34.7803V21.5527H131.165V34.7803C131.165 34.9268 131.106 35 130.989 35ZM168.074 41.21V0.799998H180.674V3.59H171.179V38.42H180.674V41.21H168.074ZM255.771 0.799998V41.21H243.171V38.42H252.666V3.59H243.171V0.799998H255.771ZM290.041 21.1932C290.041 25.2202 289.513 28.9276 288.459 32.3153C287.415 35.6925 285.918 38.8033 283.968 41.6477H280.645C281.412 40.593 282.125 39.2933 282.786 37.7486C283.457 36.2145 284.043 34.5312 284.544 32.6989C285.044 30.8558 285.433 28.9542 285.71 26.994C285.998 25.0231 286.142 23.0895 286.142 21.1932C286.142 18.6577 285.897 16.0849 285.407 13.4748C284.917 10.8647 284.256 8.44105 283.425 6.20383C282.594 3.96662 281.667 2.14488 280.645 0.738634H283.968C285.918 3.5831 287.415 6.69922 288.459 10.087C289.513 13.4641 290.041 17.1662 290.041 21.1932ZM305.833 0.738634V41.6477H296.373V38.5156H302.254V3.87074H296.373V0.738634H305.833Z" fill="url(#paint0_linear_1047_76)"/>
<defs>
<linearGradient id="paint0_linear_1047_76" x1="-35.6037" y1="43.1525" x2="386.454" y2="43.1525" gradientUnits="userSpaceOnUse">
<stop stop-color="#FF5F6D"/>
<stop offset="1" stop-color="#FFC371"/>
</linearGradient>
</defs>
</svg>
